<svg xmlns="http://www.w3.org/2000/svg" viewBox="0 0 858.81 209.49"><defs><style>.cls-1{font-size:135.19px;fill:#4d4d4d;font-family:CenturyGothic-Bold, Century Gothic;font-weight:700;}.cls-2,.cls-7{fill:none;}.cls-2{stroke:#333;stroke-width:4px;}.cls-2,.cls-3,.cls-4{stroke-miterlimit:10;}.cls-3{fill:#333;}.cls-3,.cls-4,.cls-5,.cls-6,.cls-7{stroke:#4d4d4d;}.cls-3,.cls-4,.cls-6,.cls-7{stroke-width:17px;}.cls-4{fill:#666;}.cls-5{stroke-width:12px;}</style></defs><title>Asset 7</title><g id="Layer_2" data-name="Layer 2"><g id="Layer_1-2" data-name="Layer 1"><text class="cls-1" transform="translate(20.6 168.04)">mmob<tspan class="cls-2" x="429.93" y="0">or</tspan><tspan x="559.71" y="0">cars</tspan></text><path class="cls-3" d="M2.69,74.06l198-66"/><path class="cls-4" d="M194.69,8.06l191,68"/><path class="cls-5" d="M843.17,73.14,841,72.87l-2.13-.27-1.6-.27q-1.6-.27-12.8-3.2T786.1,55.81q-27.2-10.4-44-15.73A243.67,243.67,0,0,0,712,32.34a168.23,168.23,0,0,0-26.4-2.67,145.91,145.91,0,0,0-21.87.8A169.6,169.6,0,0,0,644.5,34l-10.4,2.56-.11-.27a11,11,0,0,0-1.07-1.23l-1-.91-.11-.16-.16-.11-.16-.11-.11-.16-.11-.16-.16-.11L631,33.3l-.11-.16-.11-.16-.16-.11-.16-.11-.11-.16-.11-.16-.16-.11-.16-.11-.11-.16-.11-.16-.16-.11-.16-.11-.11-.16-.11-.16-.16-.11-.16-.11-.11-.16-.53-.16-.53-.11v-.27l.8-.27.8-.27L642.63,27q13.33-2.93,20.53-3.73a197.31,197.31,0,0,1,22.67-.53,191.44,191.44,0,0,1,30.4,2.93,229.22,229.22,0,0,1,29.87,7.47q14.93,4.8,36.8,14.4t36.27,15.73q14.4,6.13,16.8,6.93l3.2,1.07.8.27.8.27.8.27,1.07.16,1.07.11"/><path class="cls-5" d="M457.55,81.67l12.27-4.8A214.33,214.33,0,0,1,496,68.61a242.88,242.88,0,0,1,28.8-5.33q14.93-1.87,28-2.67t26.67-8.53a251.92,251.92,0,0,1,26.93-13.33q13.33-5.6,16.53-6.67t4-1.23l.8-.11.53.11.53.16.11.16.16.11.16.11.11.16.11.16.16.11.16.11.11.16.11.16.16.11.16.11.11.16.11.16.16.11.16.11.11.16.11.16.16.11.16.11.11.16.11.16.16.11.16.11.11.16,1,.91A11,11,0,0,1,634,36.34l.11.27-.53.11-1.33.43-.8.27-.8.27q-.8.27-4.53,1.6t-16,6.93a238.08,238.08,0,0,0-25.33,13.6q-13.07,8-37.34,9.07t-37.87,2.93a328.85,328.85,0,0,0-33.07,6.67L457,83.27"/><line class="cls-6" x1="8.73" y1="67.06" x2="8.73" y2="88.61"/><line class="cls-7" x1="9.02" y1="95.61" x2="8.69" y2="168.06"/></g></g></svg>